<svg xmlns="http://www.w3.org/2000/svg" viewBox="0 0 80.7 60.07"><defs><style>.cls-1{fill:#ff0000;}</style></defs><title>automotor</title><g id="Capa_2" data-name="Capa 2"><g id="Capa_2-2" data-name="Capa 2"><polygon class="cls-1" points="56.47 48.08 49.93 48.08 48.55 44.89 31.64 44.89 30.41 48.08 23.98 48.08 27.52 38.89 52.48 38.89 56.47 48.08"/><circle class="cls-1" cx="17.51" cy="34.52" r="4.69"/><circle class="cls-1" cx="62.99" cy="34.52" r="4.69"/><path class="cls-1" d="M79.18,18.87l-5.9,1.54C68.48,2.52,64.46,0,61.14,0H19.08C15.8,0,12.13,2.56,7.42,20.41l-5.9-1.54L0,24.67l6,1.57c-1,4.26-1.58,7.37-1.61,7.53l-.05.28V56.66h0A3.7,3.7,0,0,0,8,60.07h5.49a3.7,3.7,0,0,0,3.68-3.41H63.5a3.71,3.71,0,0,0,3.68,3.41h5.49a3.72,3.72,0,0,0,3.69-3.41h0V34.05l0-.27c0-.15-.61-3.27-1.61-7.54l6-1.57ZM10.31,50.66v-16c.17-.88.76-3.83,1.63-7.54H68.77c.87,3.71,1.45,6.66,1.62,7.53v16ZM19.45,6H60.91c.5.35,2.92,2.66,6.33,15.08H13.45C16.65,9.22,18.88,6.53,19.45,6Z"/></g></g></svg>