<svg xmlns="http://www.w3.org/2000/svg" viewBox="0 0 356.47 329.99"><defs><style>.cls-1{fill:#fff;}</style></defs><title>clip</title><g id="Capa_2" data-name="Capa 2"><g id="Capa_2-2" data-name="Capa 2"><path class="cls-1" d="M331.32,25.15a86.1,86.1,0,0,0-121.62,0l-190,190a67.25,67.25,0,1,0,95.1,95.11L300.88,124.18A48.5,48.5,0,0,0,232.29,55.6L63.37,224.51a11,11,0,0,0,15.56,15.56L247.84,71.15a26.5,26.5,0,0,1,37.48,37.48L99.21,294.73a45.25,45.25,0,0,1-64-64l190-190a64,64,0,0,1,90.51,90.51L142.92,304.06a11,11,0,1,0,15.56,15.56L331.32,146.77A86.1,86.1,0,0,0,331.32,25.15Z"/></g></g></svg>