<?xml version="1.0" encoding="UTF-8"?>
<!-- Generator: Adobe Illustrator 21.0.0, SVG Export Plug-In . SVG Version: 6.00 Build 0)  -->
<svg version="1.1" id="Capa_1" xmlns="http://www.w3.org/2000/svg" xmlns:xlink="http://www.w3.org/1999/xlink" x="0px" y="0px" viewBox="0 0 100 100" style="enable-background:new 0 0 100 100;" xml:space="preserve">
<style type="text/css">
	.st0{fill:none;stroke:#0072b1;stroke-width:5;stroke-miterlimit:10;}
	.st1{fill:#FFFFFF;stroke:#0072b1;stroke-width:5;stroke-linecap:round;stroke-miterlimit:10;}
</style>
<path class="st0" d="M20.9,93.3h61.7c1.7,0,3-1.4,3-3V10.5c0-1.7-1.4-3-3-3H20.9c-1.7,0-3,1.4-3,3v79.8  C17.9,91.9,19.3,93.3,20.9,93.3z"/>
<line class="st1" x1="47.5" y1="21.9" x2="76.1" y2="21.9"/>
<line class="st1" x1="47.5" y1="39.4" x2="76.1" y2="39.4"/>
<line class="st1" x1="47.5" y1="57.1" x2="76.1" y2="57.1"/>
<g>
	<line class="st1" x1="31.3" y1="26.5" x2="40.6" y2="17.2"/>
	<line class="st1" x1="31.1" y1="26.5" x2="27.8" y2="23.2"/>
</g>
<g>
	<line class="st1" x1="31.3" y1="44.1" x2="40.6" y2="34.8"/>
	<line class="st1" x1="31.1" y1="44" x2="27.8" y2="40.7"/>
</g>
<g>
	<line class="st1" x1="31.3" y1="61.8" x2="40.6" y2="52.4"/>
	<line class="st1" x1="31.1" y1="61.7" x2="27.8" y2="58.4"/>
</g>
<line class="st1" x1="47.6" y1="74.1" x2="76.3" y2="74.1"/>
<g>
	<line class="st1" x1="31.4" y1="78.8" x2="40.8" y2="69.4"/>
	<line class="st1" x1="31.3" y1="78.7" x2="28" y2="75.4"/>
</g>
</svg>