<?xml version="1.0" encoding="UTF-8"?>
<!-- Generator: Adobe Illustrator 21.0.0, SVG Export Plug-In . SVG Version: 6.00 Build 0)  -->
<svg version="1.1" id="Capa_1" xmlns="http://www.w3.org/2000/svg" xmlns:xlink="http://www.w3.org/1999/xlink" x="0px" y="0px" viewBox="0 0 100 100" style="enable-background:new 0 0 100 100;" xml:space="preserve">
<style type="text/css">
	.st0{fill:#FFFFFF;stroke:#0072b1;stroke-width:5;stroke-linecap:round;stroke-miterlimit:10;}
	.st1{fill:none;stroke:#C1342C;stroke-width:5;stroke-linecap:round;stroke-miterlimit:10;}
	.st2{fill:none;stroke:#0072b1;stroke-width:5;stroke-linecap:round;stroke-miterlimit:10;}
</style>
<path class="st0" d="M81.7,61.3L48.2,94.8c-3.5,3.5-9.2,3.5-12.6,0l-27-27c-3.5-3.5-3.5-9.2,0-12.6l33-33c1.1-1.1,2.5-1.8,4-1.9  l23.6-2.6c2-0.4,4,0.2,5.4,1.6L85,29.6c1.4,1.4,2,3.5,1.5,5.4L83,58.4C82.9,59.5,82.4,60.5,81.7,61.3z"/>
<path class="st0" d="M81.9,53.4l-34,34c-3.5,3.5-9.3,3.5-12.8,0L7.7,60c-3.5-3.5-3.5-9.3,0-12.8l33.5-33.5c1.1-1.1,2.6-1.8,4.1-1.9  l24-2.6c2-0.4,4.1,0.2,5.5,1.6l10.5,10.5c1.4,1.4,2,3.5,1.5,5.5l-3.5,23.8C83.2,51.6,82.7,52.6,81.9,53.4z"/>
<ellipse transform="matrix(0.7071 -0.7071 0.7071 0.7071 -0.8523 55.5339)" class="st0" cx="66.6" cy="28.8" rx="9.2" ry="9.2"/>
<line class="st0" x1="66.6" y1="28.8" x2="94" y2="3.6"/>
<g>
	<path class="st1" d="M41.5,67.6"/>
	<path class="st1" d="M52.3,56.4"/>
	<path class="st1" d="M52.9,67.2"/>
	<path class="st1" d="M29.5,43.8"/>
</g>
<g>
	<g>
		<path class="st0" d="M38.8,41.1l-7.4,7.4c-2.6,2.6-2.9,6.5-0.7,8.7l0,0c2.2,2.2,6.1,1.9,8.7-0.7l3.2-3.2"/>
		<path class="st2" d="M42.9,68.9l7.4-7.4c2.6-2.6,2.9-6.5,0.7-8.7l0,0c-2.2-2.2-6.1-1.9-8.7,0.7"/>
	</g>
	<line class="st2" x1="28.5" y1="42.6" x2="52.4" y2="66.5"/>
</g>
</svg>