<svg xmlns="http://www.w3.org/2000/svg" viewBox="0 0 120.48 67.57"><defs><style>.cls-1{fill:#ff0000;}</style></defs><title>personal</title><g id="Capa_2" data-name="Capa 2"><g id="Capa_2-2" data-name="Capa 2"><circle class="cls-1" cx="86.62" cy="16.84" r="3.43"/><circle class="cls-1" cx="86.62" cy="51.09" r="3.43"/><path class="cls-1" d="M47.17,42l0-.12-2.43-1.3c-.94-.49-1.91-.93-2.89-1.33A21.26,21.26,0,1,0,15,35.77a21,21,0,0,0,4.19,3.46,30.39,30.39,0,0,0-2.9,1.33l-2.44,1.29.05.13A30.47,30.47,0,0,0,0,67.57H6A24.43,24.43,0,0,1,16.57,47.44a16.94,16.94,0,0,0,27.92,0A24.46,24.46,0,0,1,55.05,67.57h6A30.45,30.45,0,0,0,47.17,42ZM15.3,21.26A15.23,15.23,0,1,1,30.54,36.5,15.24,15.24,0,0,1,15.3,21.26ZM30.53,48.75A10.91,10.91,0,0,1,22,44.6l.2-.06c.53-.2,1.07-.37,1.61-.53l.47-.13c.62-.16,1.25-.31,1.88-.42l.16,0c.59-.1,1.19-.17,1.79-.23l.5-.05c.65,0,1.31-.08,2-.08s1.32,0,2,.08l.51.05c.59.06,1.18.13,1.77.23l.17,0c.63.11,1.25.26,1.87.42l.48.14c.53.15,1,.32,1.57.51l.22.07A10.9,10.9,0,0,1,30.53,48.75Z"/><path class="cls-1" d="M67.29,0V67.56H106V0Zm30.4,59.12a5.2,5.2,0,0,0-1,1.16A5.12,5.12,0,0,0,96,63H77.29a5,5,0,0,0-.75-2.66,4.6,4.6,0,0,0-1-1.2,5.07,5.07,0,0,0-3.41-1.3V9.75a5.05,5.05,0,0,0,3.39-1.3,4.45,4.45,0,0,0,1-1.22,5,5,0,0,0,.75-2.65H96a5.11,5.11,0,0,0,.75,2.69,5,5,0,0,0,1,1.18,5.09,5.09,0,0,0,3.42,1.3V57.82A5.07,5.07,0,0,0,97.69,59.12Z"/><path class="cls-1" d="M86.62,43.7a9.92,9.92,0,1,1,9.92-9.92A9.93,9.93,0,0,1,86.62,43.7Zm0-14.84a4.92,4.92,0,1,0,4.92,4.92A4.93,4.93,0,0,0,86.62,28.86Z"/><path class="cls-1" d="M120.48,2.15a288.13,288.13,0,0,0-7.27,65.39h-4.85c-.15-35.7,5.25-56.64,5.25-56.64a9.18,9.18,0,0,1-1.19-.36,3,3,0,0,1-1.19-1.13,5.05,5.05,0,0,1-.75-2.69h-2.92V2.15Z"/></g></g></svg>